<mxfile host="app.diagrams.net" modified="2021-02-19T09:25:08.723Z" agent="5.0 (Windows NT 10.0; Win64; x64) AppleWebKit/537.36 (KHTML, like Gecko) Chrome/88.0.4324.182 Safari/537.36" etag="i-q1t8amOCgFbGgfJOvD" version="14.2.9" type="github">
  <diagram id="C5RBs43oDa-KdzZeNtuy" name="Page-1">
    <mxGraphModel dx="981" dy="487" grid="1" gridSize="10" guides="1" tooltips="1" connect="1" arrows="1" fold="1" page="1" pageScale="1" pageWidth="827" pageHeight="1169" math="0" shadow="0">
      <root>
        <mxCell id="WIyWlLk6GJQsqaUBKTNV-0" />
        <mxCell id="WIyWlLk6GJQsqaUBKTNV-1" parent="WIyWlLk6GJQsqaUBKTNV-0" />
        <mxCell id="zkfFHV4jXpPFQw0GAbJ--0" value="Plan(计划)" style="swimlane;fontStyle=2;align=center;verticalAlign=top;childLayout=stackLayout;horizontal=1;startSize=26;horizontalStack=0;resizeParent=1;resizeLast=0;collapsible=1;marginBottom=0;rounded=0;shadow=0;strokeWidth=1;" parent="WIyWlLk6GJQsqaUBKTNV-1" vertex="1" collapsed="1">
          <mxGeometry x="300" y="196" width="160" height="26" as="geometry">
            <mxRectangle x="220" y="130" width="160" height="60" as="alternateBounds" />
          </mxGeometry>
        </mxCell>
        <mxCell id="zkfFHV4jXpPFQw0GAbJ--17" value="Matcher(具体对象，四层模型)" style="swimlane;fontStyle=1;align=center;verticalAlign=top;childLayout=stackLayout;horizontal=1;startSize=26;horizontalStack=0;resizeParent=1;resizeLast=0;collapsible=1;marginBottom=0;rounded=0;shadow=0;strokeWidth=1;fillColor=#B8B8B8;" parent="WIyWlLk6GJQsqaUBKTNV-1" vertex="1" collapsed="1">
          <mxGeometry x="290" y="400" width="180" height="26" as="geometry">
            <mxRectangle x="530" y="130" width="160" height="268" as="alternateBounds" />
          </mxGeometry>
        </mxCell>
        <mxCell id="zkfFHV4jXpPFQw0GAbJ--23" value="" style="line;html=1;strokeWidth=1;align=left;verticalAlign=middle;spacingTop=-1;spacingLeft=3;spacingRight=3;rotatable=0;labelPosition=right;points=[];portConstraint=eastwest;" parent="zkfFHV4jXpPFQw0GAbJ--17" vertex="1">
          <mxGeometry y="26" width="180" height="8" as="geometry" />
        </mxCell>
        <mxCell id="zkfFHV4jXpPFQw0GAbJ--26" value="" style="endArrow=open;shadow=0;strokeWidth=1;rounded=0;endFill=1;edgeStyle=elbowEdgeStyle;elbow=vertical;" parent="WIyWlLk6GJQsqaUBKTNV-1" source="zkfFHV4jXpPFQw0GAbJ--0" target="zkfFHV4jXpPFQw0GAbJ--17" edge="1">
          <mxGeometry x="0.5" y="41" relative="1" as="geometry">
            <mxPoint x="437" y="258" as="sourcePoint" />
            <mxPoint x="597" y="258" as="targetPoint" />
            <mxPoint x="-40" y="32" as="offset" />
            <Array as="points">
              <mxPoint x="380" y="280" />
              <mxPoint x="540" y="220" />
              <mxPoint x="537" y="209" />
              <mxPoint x="527" y="236" />
            </Array>
          </mxGeometry>
        </mxCell>
        <mxCell id="zkfFHV4jXpPFQw0GAbJ--27" value="1" style="resizable=0;align=left;verticalAlign=bottom;labelBackgroundColor=none;fontSize=12;" parent="zkfFHV4jXpPFQw0GAbJ--26" connectable="0" vertex="1">
          <mxGeometry x="-1" relative="1" as="geometry">
            <mxPoint y="18" as="offset" />
          </mxGeometry>
        </mxCell>
        <mxCell id="zkfFHV4jXpPFQw0GAbJ--28" value="n" style="resizable=0;align=right;verticalAlign=bottom;labelBackgroundColor=none;fontSize=12;" parent="zkfFHV4jXpPFQw0GAbJ--26" connectable="0" vertex="1">
          <mxGeometry x="1" relative="1" as="geometry">
            <mxPoint x="-7" as="offset" />
          </mxGeometry>
        </mxCell>
        <mxCell id="GdepSl2b9K-zGyHLG9DF-6" value="" style="endArrow=open;shadow=0;strokeWidth=1;rounded=0;endFill=1;edgeStyle=elbowEdgeStyle;elbow=vertical;exitX=0.5;exitY=1;exitDx=0;exitDy=0;entryX=0.5;entryY=0;entryDx=0;entryDy=0;" parent="WIyWlLk6GJQsqaUBKTNV-1" source="zkfFHV4jXpPFQw0GAbJ--17" target="GdepSl2b9K-zGyHLG9DF-9" edge="1">
          <mxGeometry x="0.5" y="41" relative="1" as="geometry">
            <mxPoint x="617" y="286" as="sourcePoint" />
            <mxPoint x="420" y="490" as="targetPoint" />
            <mxPoint x="-40" y="32" as="offset" />
            <Array as="points">
              <mxPoint x="374" y="470" />
              <mxPoint x="667" y="276" />
              <mxPoint x="667" y="286" />
              <mxPoint x="717" y="286" />
              <mxPoint x="707" y="313" />
            </Array>
          </mxGeometry>
        </mxCell>
        <mxCell id="GdepSl2b9K-zGyHLG9DF-7" value="1" style="resizable=0;align=left;verticalAlign=bottom;labelBackgroundColor=none;fontSize=12;" parent="GdepSl2b9K-zGyHLG9DF-6" connectable="0" vertex="1">
          <mxGeometry x="-1" relative="1" as="geometry">
            <mxPoint x="-17" y="18" as="offset" />
          </mxGeometry>
        </mxCell>
        <mxCell id="GdepSl2b9K-zGyHLG9DF-8" value="n" style="resizable=0;align=right;verticalAlign=bottom;labelBackgroundColor=none;fontSize=12;" parent="GdepSl2b9K-zGyHLG9DF-6" connectable="0" vertex="1">
          <mxGeometry x="1" relative="1" as="geometry">
            <mxPoint x="-7" y="4" as="offset" />
          </mxGeometry>
        </mxCell>
        <mxCell id="GdepSl2b9K-zGyHLG9DF-9" value="Object(容器)" style="swimlane;fontStyle=0;align=center;verticalAlign=top;childLayout=stackLayout;horizontal=1;startSize=26;horizontalStack=0;resizeParent=1;resizeLast=0;collapsible=1;marginBottom=0;rounded=0;shadow=0;strokeWidth=1;" parent="WIyWlLk6GJQsqaUBKTNV-1" vertex="1" collapsed="1">
          <mxGeometry x="300" y="550" width="160" height="26" as="geometry">
            <mxRectangle x="530" y="130" width="160" height="268" as="alternateBounds" />
          </mxGeometry>
        </mxCell>
        <mxCell id="GdepSl2b9K-zGyHLG9DF-10" value="" style="line;html=1;strokeWidth=1;align=left;verticalAlign=middle;spacingTop=-1;spacingLeft=3;spacingRight=3;rotatable=0;labelPosition=right;points=[];portConstraint=eastwest;" parent="GdepSl2b9K-zGyHLG9DF-9" vertex="1">
          <mxGeometry y="26" width="160" height="8" as="geometry" />
        </mxCell>
        <mxCell id="GdepSl2b9K-zGyHLG9DF-11" value="Monitor(监控对象)" style="swimlane;fontStyle=0;align=center;verticalAlign=top;childLayout=stackLayout;horizontal=1;startSize=26;horizontalStack=0;resizeParent=1;resizeLast=0;collapsible=1;marginBottom=0;rounded=0;shadow=0;strokeWidth=1;" parent="WIyWlLk6GJQsqaUBKTNV-1" vertex="1" collapsed="1">
          <mxGeometry x="60" y="310" width="160" height="26" as="geometry">
            <mxRectangle x="530" y="130" width="160" height="268" as="alternateBounds" />
          </mxGeometry>
        </mxCell>
        <mxCell id="GdepSl2b9K-zGyHLG9DF-12" value="" style="line;html=1;strokeWidth=1;align=left;verticalAlign=middle;spacingTop=-1;spacingLeft=3;spacingRight=3;rotatable=0;labelPosition=right;points=[];portConstraint=eastwest;" parent="GdepSl2b9K-zGyHLG9DF-11" vertex="1">
          <mxGeometry y="26" width="160" height="8" as="geometry" />
        </mxCell>
        <mxCell id="GdepSl2b9K-zGyHLG9DF-13" value="" style="endArrow=open;shadow=0;strokeWidth=1;rounded=0;endFill=1;edgeStyle=elbowEdgeStyle;elbow=vertical;entryX=0.5;entryY=0;entryDx=0;entryDy=0;exitX=0;exitY=0.5;exitDx=0;exitDy=0;" parent="WIyWlLk6GJQsqaUBKTNV-1" source="zkfFHV4jXpPFQw0GAbJ--0" target="GdepSl2b9K-zGyHLG9DF-11" edge="1">
          <mxGeometry x="0.5" y="41" relative="1" as="geometry">
            <mxPoint x="270" y="220" as="sourcePoint" />
            <mxPoint x="307" y="424" as="targetPoint" />
            <mxPoint x="-40" y="32" as="offset" />
            <Array as="points">
              <mxPoint x="200" y="209" />
              <mxPoint x="247" y="375" />
              <mxPoint x="237" y="402" />
            </Array>
          </mxGeometry>
        </mxCell>
        <mxCell id="GdepSl2b9K-zGyHLG9DF-14" value="1" style="resizable=0;align=left;verticalAlign=bottom;labelBackgroundColor=none;fontSize=12;" parent="GdepSl2b9K-zGyHLG9DF-13" connectable="0" vertex="1">
          <mxGeometry x="-1" relative="1" as="geometry">
            <mxPoint x="-17" y="18" as="offset" />
          </mxGeometry>
        </mxCell>
        <mxCell id="GdepSl2b9K-zGyHLG9DF-15" value="n" style="resizable=0;align=right;verticalAlign=bottom;labelBackgroundColor=none;fontSize=12;" parent="GdepSl2b9K-zGyHLG9DF-13" connectable="0" vertex="1">
          <mxGeometry x="1" relative="1" as="geometry">
            <mxPoint x="-7" y="4" as="offset" />
          </mxGeometry>
        </mxCell>
        <mxCell id="GdepSl2b9K-zGyHLG9DF-19" value="Config(配置)" style="swimlane;fontStyle=0;align=center;verticalAlign=top;childLayout=stackLayout;horizontal=1;startSize=26;horizontalStack=0;resizeParent=1;resizeLast=0;collapsible=1;marginBottom=0;rounded=0;shadow=0;strokeWidth=1;" parent="WIyWlLk6GJQsqaUBKTNV-1" vertex="1" collapsed="1">
          <mxGeometry x="540" y="310" width="160" height="26" as="geometry">
            <mxRectangle x="530" y="130" width="160" height="268" as="alternateBounds" />
          </mxGeometry>
        </mxCell>
        <mxCell id="GdepSl2b9K-zGyHLG9DF-20" value="" style="line;html=1;strokeWidth=1;align=left;verticalAlign=middle;spacingTop=-1;spacingLeft=3;spacingRight=3;rotatable=0;labelPosition=right;points=[];portConstraint=eastwest;" parent="GdepSl2b9K-zGyHLG9DF-19" vertex="1">
          <mxGeometry y="26" width="160" height="8" as="geometry" />
        </mxCell>
        <mxCell id="GdepSl2b9K-zGyHLG9DF-22" value="Indicator(指标)" style="swimlane;fontStyle=0;align=center;verticalAlign=top;childLayout=stackLayout;horizontal=1;startSize=26;horizontalStack=0;resizeParent=1;resizeLast=0;collapsible=1;marginBottom=0;rounded=0;shadow=0;strokeWidth=1;" parent="WIyWlLk6GJQsqaUBKTNV-1" vertex="1" collapsed="1">
          <mxGeometry x="60" y="450" width="160" height="26" as="geometry">
            <mxRectangle x="530" y="130" width="160" height="268" as="alternateBounds" />
          </mxGeometry>
        </mxCell>
        <mxCell id="GdepSl2b9K-zGyHLG9DF-23" value="" style="line;html=1;strokeWidth=1;align=left;verticalAlign=middle;spacingTop=-1;spacingLeft=3;spacingRight=3;rotatable=0;labelPosition=right;points=[];portConstraint=eastwest;" parent="GdepSl2b9K-zGyHLG9DF-22" vertex="1">
          <mxGeometry y="26" width="160" height="8" as="geometry" />
        </mxCell>
        <mxCell id="GdepSl2b9K-zGyHLG9DF-24" value="" style="endArrow=open;shadow=0;strokeWidth=1;rounded=0;endFill=1;edgeStyle=elbowEdgeStyle;elbow=vertical;entryX=0.5;entryY=0;entryDx=0;entryDy=0;exitX=0.5;exitY=1;exitDx=0;exitDy=0;" parent="WIyWlLk6GJQsqaUBKTNV-1" source="GdepSl2b9K-zGyHLG9DF-11" target="GdepSl2b9K-zGyHLG9DF-22" edge="1">
          <mxGeometry x="0.5" y="41" relative="1" as="geometry">
            <mxPoint x="80" y="340" as="sourcePoint" />
            <mxPoint x="30" y="548" as="targetPoint" />
            <mxPoint x="-40" y="32" as="offset" />
            <Array as="points">
              <mxPoint x="90" y="390" />
              <mxPoint x="-30" y="499" />
              <mxPoint x="-40" y="526" />
            </Array>
          </mxGeometry>
        </mxCell>
        <mxCell id="GdepSl2b9K-zGyHLG9DF-25" value="1" style="resizable=0;align=left;verticalAlign=bottom;labelBackgroundColor=none;fontSize=12;" parent="GdepSl2b9K-zGyHLG9DF-24" connectable="0" vertex="1">
          <mxGeometry x="-1" relative="1" as="geometry">
            <mxPoint x="-17" y="18" as="offset" />
          </mxGeometry>
        </mxCell>
        <mxCell id="GdepSl2b9K-zGyHLG9DF-26" value="n" style="resizable=0;align=right;verticalAlign=bottom;labelBackgroundColor=none;fontSize=12;" parent="GdepSl2b9K-zGyHLG9DF-24" connectable="0" vertex="1">
          <mxGeometry x="1" relative="1" as="geometry">
            <mxPoint x="-7" y="4" as="offset" />
          </mxGeometry>
        </mxCell>
        <mxCell id="GdepSl2b9K-zGyHLG9DF-31" value="" style="endArrow=open;shadow=0;strokeWidth=1;rounded=0;endFill=1;edgeStyle=elbowEdgeStyle;elbow=vertical;exitX=0;exitY=0.5;exitDx=0;exitDy=0;entryX=0.828;entryY=0;entryDx=0;entryDy=0;entryPerimeter=0;" parent="WIyWlLk6GJQsqaUBKTNV-1" source="GdepSl2b9K-zGyHLG9DF-19" target="zkfFHV4jXpPFQw0GAbJ--17" edge="1">
          <mxGeometry x="0.5" y="41" relative="1" as="geometry">
            <mxPoint x="710" y="260" as="sourcePoint" />
            <mxPoint x="440" y="390" as="targetPoint" />
            <mxPoint x="-40" y="32" as="offset" />
            <Array as="points">
              <mxPoint x="490" y="320" />
              <mxPoint x="690" y="353" />
              <mxPoint x="650" y="140" />
              <mxPoint x="760" y="172" />
              <mxPoint x="810" y="172" />
              <mxPoint x="800" y="199" />
            </Array>
          </mxGeometry>
        </mxCell>
        <mxCell id="GdepSl2b9K-zGyHLG9DF-32" value="1" style="resizable=0;align=left;verticalAlign=bottom;labelBackgroundColor=none;fontSize=12;" parent="GdepSl2b9K-zGyHLG9DF-31" connectable="0" vertex="1">
          <mxGeometry x="-1" relative="1" as="geometry">
            <mxPoint x="-17" y="14" as="offset" />
          </mxGeometry>
        </mxCell>
        <mxCell id="GdepSl2b9K-zGyHLG9DF-33" value="1" style="resizable=0;align=right;verticalAlign=bottom;labelBackgroundColor=none;fontSize=12;" parent="GdepSl2b9K-zGyHLG9DF-31" connectable="0" vertex="1">
          <mxGeometry x="1" relative="1" as="geometry">
            <mxPoint x="-7" y="-0.040000000000000036" as="offset" />
          </mxGeometry>
        </mxCell>
        <mxCell id="GdepSl2b9K-zGyHLG9DF-34" value="GuardRule(告警规则)" style="swimlane;fontStyle=0;align=center;verticalAlign=top;childLayout=stackLayout;horizontal=1;startSize=26;horizontalStack=0;resizeParent=1;resizeLast=0;collapsible=1;marginBottom=0;rounded=0;shadow=0;strokeWidth=1;" parent="WIyWlLk6GJQsqaUBKTNV-1" vertex="1" collapsed="1">
          <mxGeometry x="60" y="590" width="160" height="26" as="geometry">
            <mxRectangle x="530" y="130" width="160" height="268" as="alternateBounds" />
          </mxGeometry>
        </mxCell>
        <mxCell id="GdepSl2b9K-zGyHLG9DF-35" value="" style="line;html=1;strokeWidth=1;align=left;verticalAlign=middle;spacingTop=-1;spacingLeft=3;spacingRight=3;rotatable=0;labelPosition=right;points=[];portConstraint=eastwest;" parent="GdepSl2b9K-zGyHLG9DF-34" vertex="1">
          <mxGeometry y="26" width="160" height="8" as="geometry" />
        </mxCell>
        <mxCell id="GdepSl2b9K-zGyHLG9DF-36" value="" style="endArrow=open;shadow=0;strokeWidth=1;rounded=0;endFill=1;edgeStyle=elbowEdgeStyle;elbow=vertical;entryX=0.5;entryY=0;entryDx=0;entryDy=0;exitX=0.5;exitY=1;exitDx=0;exitDy=0;" parent="WIyWlLk6GJQsqaUBKTNV-1" source="GdepSl2b9K-zGyHLG9DF-22" target="GdepSl2b9K-zGyHLG9DF-34" edge="1">
          <mxGeometry x="0.5" y="41" relative="1" as="geometry">
            <mxPoint x="80" y="484" as="sourcePoint" />
            <mxPoint x="30" y="696" as="targetPoint" />
            <mxPoint x="-40" y="32" as="offset" />
            <Array as="points">
              <mxPoint x="90" y="538" />
              <mxPoint x="-30" y="647" />
              <mxPoint x="-40" y="674" />
            </Array>
          </mxGeometry>
        </mxCell>
        <mxCell id="GdepSl2b9K-zGyHLG9DF-37" value="1" style="resizable=0;align=left;verticalAlign=bottom;labelBackgroundColor=none;fontSize=12;" parent="GdepSl2b9K-zGyHLG9DF-36" connectable="0" vertex="1">
          <mxGeometry x="-1" relative="1" as="geometry">
            <mxPoint x="-17" y="18" as="offset" />
          </mxGeometry>
        </mxCell>
        <mxCell id="GdepSl2b9K-zGyHLG9DF-38" value="n" style="resizable=0;align=right;verticalAlign=bottom;labelBackgroundColor=none;fontSize=12;" parent="GdepSl2b9K-zGyHLG9DF-36" connectable="0" vertex="1">
          <mxGeometry x="1" relative="1" as="geometry">
            <mxPoint x="-7" y="4" as="offset" />
          </mxGeometry>
        </mxCell>
        <mxCell id="GdepSl2b9K-zGyHLG9DF-39" value="" style="endArrow=open;shadow=0;strokeWidth=1;rounded=0;endFill=1;edgeStyle=elbowEdgeStyle;elbow=vertical;exitX=1;exitY=0.5;exitDx=0;exitDy=0;" parent="WIyWlLk6GJQsqaUBKTNV-1" source="GdepSl2b9K-zGyHLG9DF-11" edge="1">
          <mxGeometry x="0.5" y="41" relative="1" as="geometry">
            <mxPoint x="447" y="219" as="sourcePoint" />
            <mxPoint x="316" y="400" as="targetPoint" />
            <mxPoint x="-40" y="32" as="offset" />
            <Array as="points">
              <mxPoint x="270" y="320" />
              <mxPoint x="500" y="350" />
              <mxPoint x="590" y="280" />
              <mxPoint x="537" y="246" />
            </Array>
          </mxGeometry>
        </mxCell>
        <mxCell id="GdepSl2b9K-zGyHLG9DF-40" value="1" style="resizable=0;align=left;verticalAlign=bottom;labelBackgroundColor=none;fontSize=12;" parent="GdepSl2b9K-zGyHLG9DF-39" connectable="0" vertex="1">
          <mxGeometry x="-1" relative="1" as="geometry">
            <mxPoint y="4" as="offset" />
          </mxGeometry>
        </mxCell>
        <mxCell id="GdepSl2b9K-zGyHLG9DF-41" value="1" style="resizable=0;align=right;verticalAlign=bottom;labelBackgroundColor=none;fontSize=12;" parent="GdepSl2b9K-zGyHLG9DF-39" connectable="0" vertex="1">
          <mxGeometry x="1" relative="1" as="geometry">
            <mxPoint x="-7" as="offset" />
          </mxGeometry>
        </mxCell>
        <mxCell id="GdepSl2b9K-zGyHLG9DF-44" value="" style="endArrow=open;shadow=0;strokeWidth=1;rounded=0;endFill=1;edgeStyle=elbowEdgeStyle;elbow=vertical;entryX=0.5;entryY=0;entryDx=0;entryDy=0;" parent="WIyWlLk6GJQsqaUBKTNV-1" target="GdepSl2b9K-zGyHLG9DF-19" edge="1">
          <mxGeometry x="0.5" y="41" relative="1" as="geometry">
            <mxPoint x="460" y="209" as="sourcePoint" />
            <mxPoint x="449.03999999999996" y="410" as="targetPoint" />
            <mxPoint x="-40" y="32" as="offset" />
            <Array as="points">
              <mxPoint x="590" y="209" />
              <mxPoint x="700" y="363" />
              <mxPoint x="660" y="150" />
              <mxPoint x="770" y="182" />
              <mxPoint x="820" y="182" />
              <mxPoint x="810" y="209" />
            </Array>
          </mxGeometry>
        </mxCell>
        <mxCell id="GdepSl2b9K-zGyHLG9DF-45" value="1" style="resizable=0;align=left;verticalAlign=bottom;labelBackgroundColor=none;fontSize=12;" parent="GdepSl2b9K-zGyHLG9DF-44" connectable="0" vertex="1">
          <mxGeometry x="-1" relative="1" as="geometry">
            <mxPoint x="-17" y="14" as="offset" />
          </mxGeometry>
        </mxCell>
        <mxCell id="GdepSl2b9K-zGyHLG9DF-46" value="n" style="resizable=0;align=right;verticalAlign=bottom;labelBackgroundColor=none;fontSize=12;" parent="GdepSl2b9K-zGyHLG9DF-44" connectable="0" vertex="1">
          <mxGeometry x="1" relative="1" as="geometry">
            <mxPoint x="-7" y="4" as="offset" />
          </mxGeometry>
        </mxCell>
      </root>
    </mxGraphModel>
  </diagram>
</mxfile>
